<?xml version="1.0" standalone="no"?>
<!DOCTYPE svg PUBLIC "-//W3C//DTD SVG 20010904//EN"
 "http://www.w3.org/TR/2001/REC-SVG-20010904/DTD/svg10.dtd">
<svg version="1.0" xmlns="http://www.w3.org/2000/svg"
 width="500.000000pt" height="500.000000pt" viewBox="0 0 500.000000 500.000000"
 preserveAspectRatio="xMidYMid meet">

<g transform="translate(0.000000,500.000000) scale(0.100000,-0.100000)"
fill="#000000" stroke="none">
<path d="M651 4131 c-84 -90 -80 -309 7 -436 16 -22 98 -103 183 -180 167
-150 168 -151 403 -355 85 -74 155 -138 155 -142 1 -4 -14 -11 -32 -16 -75
-21 -227 -88 -285 -126 -34 -22 -59 -42 -55 -43 4 -2 74 8 156 20 81 13 147
21 147 18 0 -3 -28 -22 -61 -41 -56 -32 -89 -63 -147 -140 -13 -17 -40 -39
-60 -49 l-37 -19 37 -7 c52 -10 96 8 160 65 64 57 230 161 241 151 4 -4 19
-47 33 -96 42 -147 125 -291 228 -398 20 -20 36 -39 36 -42 0 -3 -22 -5 -50
-5 l-50 0 0 49 c0 61 -17 81 -70 81 -62 0 -70 -7 -70 -59 0 -25 -4 -52 -8 -58
-6 -10 -91 -13 -348 -15 l-339 -3 0 -205 0 -205 314 -5 313 -5 -73 -64 c-40
-35 -78 -65 -85 -68 -7 -2 -29 14 -49 36 -21 23 -41 41 -46 41 -14 0 -89 -71
-89 -85 0 -7 14 -29 30 -50 17 -21 30 -43 29 -49 0 -6 -113 -108 -250 -226
-175 -151 -248 -220 -246 -233 2 -22 237 -296 253 -297 5 0 89 68 185 150 96
83 211 183 257 222 l83 71 42 -41 c24 -23 46 -42 50 -42 12 0 87 72 87 84 0 6
-14 27 -30 46 -16 19 -30 40 -30 46 0 7 28 36 62 65 34 30 96 84 137 121 42
37 78 68 81 68 3 0 16 -21 30 -46 33 -63 100 -135 160 -174 117 -75 300 -105
463 -77 174 30 297 117 364 255 l35 73 22 -19 c11 -10 77 -68 146 -128 69 -60
131 -114 138 -121 11 -11 7 -21 -24 -59 -43 -52 -41 -59 19 -108 l37 -30 45
44 45 44 22 -20 c269 -238 484 -419 498 -419 19 0 260 269 260 291 0 11 -119
120 -417 383 -46 39 -83 76 -83 80 0 4 17 27 37 50 l37 44 -47 43 c-25 24 -50
44 -56 44 -5 0 -24 -18 -41 -40 -17 -22 -37 -40 -43 -40 -7 0 -46 32 -87 70
l-75 69 342 1 c209 0 363 4 395 11 136 28 244 113 299 234 51 114 34 158 -67
171 -32 4 -227 4 -434 0 -206 -4 -398 -4 -425 -1 l-50 7 -49 90 c-43 81 -47
94 -41 133 7 51 -4 78 -46 115 l-29 25 25 78 c14 43 25 84 25 92 0 13 -123 14
-896 14 -665 -1 -899 2 -907 10 -20 20 -15 294 6 365 10 32 16 60 14 62 -2 2
-9 -14 -16 -37 -15 -48 10 -64 -216 136 -93 83 -223 197 -288 254 -65 58 -127
119 -138 137 -31 51 -35 122 -11 177 12 26 25 47 29 47 9 0 103 -81 424 -364
291 -257 264 -228 246 -262 -8 -16 -18 -40 -21 -54 -4 -14 13 16 38 65 69 138
170 259 306 368 26 21 23 20 -13 -5 -62 -42 -192 -177 -236 -245 -36 -56 -50
-63 -72 -37 -7 9 -119 109 -249 222 -129 114 -237 209 -240 212 -16 16 -185
165 -243 213 -78 66 -106 71 -146 28z m73 -17 c24 -9 19 -33 -10 -44 -53 -20
-71 -5 -37 32 18 20 23 21 47 12z m78 -71 c23 -21 23 -30 -3 -72 l-20 -34 -29
34 c-36 42 -37 50 -2 71 33 21 32 21 54 1z m-94 -77 c34 -39 48 -90 37 -133
-7 -31 -51 -93 -65 -93 -20 0 -50 111 -50 189 0 43 3 81 6 84 10 10 38 -9 72
-47z m99 -216 l21 -40 -31 1 c-18 0 -40 3 -49 7 -16 6 -16 9 3 40 12 17 24 32
27 32 4 0 17 -18 29 -40z m82 -110 c22 -11 49 -32 60 -46 23 -29 55 -125 49
-148 -2 -9 -51 28 -133 99 -71 63 -131 118 -133 123 -5 15 115 -6 157 -28z
m244 -199 c20 -19 37 -39 37 -43 0 -4 -25 -8 -55 -8 -63 0 -67 5 -80 96 l-7
49 33 -30 c19 -16 51 -45 72 -64z m113 -111 c20 -13 49 -40 64 -62 27 -37 58
-133 47 -145 -7 -6 -259 213 -266 230 -7 19 117 0 155 -23z m209 -213 c-5 -17
-14 -27 -25 -27 -24 0 -26 4 -35 70 l-7 55 37 -36 c30 -29 35 -40 30 -62z
m231 -334 c27 -124 72 -186 168 -233 180 -89 382 9 427 208 l12 52 227 0 228
0 6 -31 c13 -67 9 -79 -26 -79 -18 0 -73 9 -121 19 -86 18 -87 18 -70 -1 29
-32 82 -60 157 -83 l71 -22 10 -104 c6 -62 13 -99 18 -91 7 10 37 168 37 193
0 3 26 12 58 19 74 16 152 53 183 86 22 24 22 26 4 21 -48 -14 -177 -37 -205
-37 l-31 0 3 53 3 52 193 3 c136 2 192 -1 192 -9 0 -6 -9 -42 -21 -80 -17 -55
-27 -73 -49 -84 -42 -22 -60 -53 -60 -104 0 -46 -16 -71 -101 -162 -97 -102
-242 -190 -386 -231 -67 -20 -102 -23 -238 -23 -136 0 -171 3 -238 23 -151 43
-306 138 -403 245 -98 108 -188 276 -209 390 l-7 37 81 0 c80 0 81 0 87 -27z
m1558 -194 c30 -24 34 -57 8 -89 -36 -45 -112 -17 -112 42 0 32 31 68 59 68
10 0 30 -9 45 -21z m34 -166 c28 -41 82 -150 82 -168 0 -13 -66 -55 -88 -55
-5 0 -20 52 -32 116 -19 98 -21 117 -9 125 21 13 26 11 47 -18z m-86 -69 c9
-43 20 -100 23 -126 7 -46 6 -48 -18 -48 -24 0 -25 2 -31 98 -4 53 -10 112
-13 131 -4 26 -3 33 8 29 8 -3 21 -37 31 -84z m-67 -66 l6 -118 -30 0 c-16 0
-32 3 -34 8 -8 14 14 216 25 229 19 24 25 1 33 -119z m-1511 61 c3 -17 6 -136
6 -264 0 -272 -3 -295 -36 -295 l-24 0 0 295 0 295 24 0 c18 0 25 -7 30 -31z
m1419 -25 c11 -11 -5 -34 -24 -34 -22 0 -24 11 -7 28 13 13 22 15 31 6z m1135
-78 c11 -11 -32 -106 -61 -134 -64 -62 -62 -62 -544 -62 l-438 1 -102 90 c-57
49 -103 94 -103 99 0 6 25 10 56 10 l56 0 -6 -42 c-10 -68 -4 -71 125 -66 125
4 177 22 230 79 25 27 31 28 130 32 124 5 650 -1 657 -7z m-3208 -27 c0 -11
-18 -37 -40 -58 -31 -29 -40 -45 -40 -70 0 -45 26 -95 56 -111 18 -10 24 -21
22 -39 -3 -24 -7 -26 -48 -26 l-45 0 -3 162 -2 162 42 3 c53 4 58 2 58 -23z
m558 -16 c2 -24 0 -43 -5 -43 -4 0 -24 17 -45 37 l-38 37 -65 -64 -65 -64 -65
64 -65 64 -70 -69 c-39 -38 -70 -76 -70 -83 0 -17 119 -142 134 -142 7 0 36
25 66 55 30 30 60 55 68 55 7 0 39 -25 71 -55 32 -30 62 -55 68 -55 5 0 22 14
36 30 37 41 49 38 45 -12 l-3 -43 -244 -3 c-171 -2 -248 1 -257 9 -8 6 -14 24
-14 40 0 21 -7 32 -30 44 -34 17 -50 43 -50 79 0 40 10 54 46 66 31 10 34 15
34 49 0 21 3 41 7 45 4 3 119 5 257 4 l251 -3 3 -42z m311 31 c2 -2 1 -14 -2
-27 -7 -24 -149 -157 -169 -157 -14 0 -3 181 12 190 9 6 152 1 159 -6z m2545
0 c15 -39 -37 -148 -100 -209 -25 -24 -70 -56 -101 -71 -53 -27 -66 -28 -262
-36 -113 -5 -304 -8 -423 -6 l-217 3 -41 40 c-22 21 -40 42 -40 45 0 3 181 5
402 5 431 0 440 1 521 52 44 28 71 68 94 141 l17 52 72 0 c56 0 73 -3 78 -16z
m-2391 -77 l97 -48 0 -79 c0 -61 -3 -80 -14 -80 -18 0 -85 24 -158 57 l-60 27
6 65 c8 78 16 113 25 109 3 -2 50 -25 104 -51z m880 30 c3 -8 8 -42 12 -78 l6
-64 -47 -28 c-55 -33 -144 -70 -151 -63 -10 9 -15 95 -9 128 5 30 15 37 89 74
99 49 94 47 100 31z m247 -173 c74 -66 186 -164 248 -218 61 -54 112 -101 112
-105 0 -4 -29 -38 -63 -76 l-64 -70 -194 171 c-107 94 -199 177 -205 185 -6 8
-14 52 -18 99 -4 47 -9 110 -13 140 l-6 55 34 -31 c19 -17 95 -84 169 -150z
m-1890 111 l44 -45 -46 -47 -47 -47 -45 40 c-24 21 -45 46 -45 54 -1 16 67 90
84 90 6 0 31 -20 55 -45z m258 4 c23 -23 42 -44 42 -48 0 -4 -20 -27 -45 -51
l-45 -44 -45 44 c-25 24 -45 49 -45 54 0 14 71 86 85 86 5 0 29 -19 53 -41z
m785 -50 l87 -13 0 -78 0 -78 -37 1 c-21 0 -72 6 -113 12 l-75 12 -3 84 -3 83
28 -5 c15 -4 67 -12 116 -18z m374 -55 c2 -38 0 -74 -5 -81 -7 -11 -135 -33
-198 -33 l-35 0 3 78 3 77 73 7 c40 4 87 12 105 17 17 5 37 8 42 7 6 -2 11
-34 12 -72z m253 -99 l0 -65 -47 -30 c-44 -28 -142 -70 -163 -70 -6 0 -10 32
-10 71 l0 71 43 16 c23 9 67 29 97 44 79 38 80 38 80 -37z m-910 12 l95 -34 3
-68 3 -68 -33 7 c-18 3 -70 25 -115 47 l-81 40 -4 60 c-4 70 -15 69 132 16z
m303 -64 l67 -6 0 -75 0 -75 -77 7 c-43 3 -95 11 -115 17 l-38 10 0 71 0 71
48 -7 c26 -3 77 -9 115 -13z m352 -57 c0 -69 0 -70 -30 -78 -16 -4 -70 -11
-118 -15 l-88 -6 3 74 3 74 79 7 c43 4 84 9 90 12 6 3 22 4 36 3 24 -2 25 -5
25 -71z m330 14 c18 -20 17 -20 -13 -20 -34 0 -35 1 -26 24 8 21 17 20 39 -4z
m-1145 -30 c0 -13 -9 -22 -27 -26 -16 -3 -34 -7 -40 -10 -23 -6 -14 14 18 40
33 28 49 26 49 -4z m161 -44 c143 -58 267 -79 444 -73 165 5 262 27 386 87 34
16 65 28 67 25 3 -3 -2 -32 -12 -66 -48 -175 -153 -278 -326 -320 -89 -22
-262 -18 -345 8 -170 53 -286 179 -329 357 -8 34 -12 34 115 -18z m-587 -214
c102 -117 186 -218 186 -225 0 -14 -20 -37 -32 -37 -5 0 -261 287 -376 423
-13 15 -13 19 3 37 10 11 22 19 26 18 4 -2 91 -99 193 -216z m1639 209 c43
-17 84 -68 97 -122 21 -85 4 -82 -109 17 -56 49 -101 94 -101 101 0 15 76 18
113 4z m582 -11 c17 -19 17 -21 -1 -42 -10 -13 -21 -25 -24 -28 -3 -3 -81 -92
-174 -197 -147 -168 -171 -191 -187 -182 -11 5 -19 17 -19 25 0 8 80 106 177
217 98 111 182 207 188 214 14 17 19 16 40 -7z m-1961 -65 c-7 -19 -14 -59
-14 -88 0 -62 -5 -70 -34 -55 -11 6 -41 16 -65 23 l-44 11 83 72 c46 40 85 72
86 72 2 0 -4 -16 -12 -35z m1560 -71 c23 -21 26 -28 15 -35 -8 -5 -24 -9 -36
-9 -20 0 -23 5 -23 35 0 42 6 43 44 9z m448 -75 c32 -29 55 -55 51 -59 -4 -4
-28 -12 -53 -19 -25 -7 -53 -15 -62 -17 -14 -4 -18 1 -18 24 0 40 12 122 18
122 2 0 31 -23 64 -51z m-117 -6 c-2 -16 -7 -45 -10 -65 -5 -31 -11 -38 -38
-46 -60 -19 -89 -23 -85 -13 5 15 122 151 130 151 4 0 6 -12 3 -27z m-243 -11
c10 -10 -29 -62 -46 -62 -14 0 -66 42 -66 53 0 23 91 30 112 9z m-2034 -27
c48 -15 49 -16 56 -61 3 -26 6 -66 6 -89 l0 -42 -82 22 -83 22 -7 39 c-4 21
-7 61 -7 88 l-1 48 34 -6 c19 -4 57 -13 84 -21z m2432 -71 c0 -9 -134 -162
-143 -163 -4 -1 -5 9 -3 22 3 12 8 43 11 69 l6 46 57 15 c69 18 72 19 72 11z
m79 -11 c-46 -60 -202 -233 -210 -233 -19 0 -7 26 29 65 20 22 66 73 101 113
34 39 70 72 78 72 13 0 13 -3 2 -17z m-259 -65 c0 -47 -11 -108 -20 -108 -4 0
-33 24 -66 53 l-58 54 59 15 c84 22 85 22 85 -14z m357 0 c69 -59 75 -66 66
-71 -17 -10 -125 -38 -130 -33 -8 8 9 136 18 136 4 0 25 -15 46 -32z m-2837
-12 l85 -23 11 -84 c6 -46 10 -86 8 -88 -4 -5 -132 28 -155 40 -11 6 -20 33
-28 84 -11 78 -13 95 -8 95 1 0 40 -11 87 -24z m2733 -38 c-9 -73 -11 -76 -65
-92 -29 -8 -54 -13 -57 -10 -2 2 6 16 20 32 52 59 93 102 99 102 4 0 5 -15 3
-32z m-2843 -149 c87 -100 118 -147 92 -138 -13 5 -212 231 -212 242 0 24 36
-7 120 -104z m3115 51 l28 -29 -69 -77 c-38 -43 -87 -98 -110 -122 l-40 -45
-32 23 c-18 13 -32 31 -32 39 0 20 197 241 214 241 7 0 25 -13 41 -30z m-3165
-92 c52 -61 95 -119 95 -130 0 -23 -35 -51 -50 -40 -21 15 -205 231 -205 240
0 13 40 42 55 41 5 0 53 -50 105 -111z m3040 106 c0 -9 -123 -144 -132 -144
-5 0 -6 10 -4 23 3 12 7 39 11 59 5 32 11 38 48 51 44 16 77 21 77 11z m-174
-90 c-3 -26 -6 -55 -6 -65 0 -11 -6 -19 -12 -19 -16 1 -113 89 -105 96 6 6 95
32 116 33 11 1 12 -9 7 -45z"/>
<path d="M2324 2441 c-76 -33 -85 -143 -14 -184 79 -47 173 17 156 106 -12 62
-85 102 -142 78z"/>
<path d="M4067 4135 c-21 -11 -221 -177 -247 -205 -3 -3 -39 -35 -80 -70 -41
-35 -176 -152 -298 -259 -123 -108 -227 -197 -230 -198 -4 -1 -22 24 -41 56
-18 33 -52 79 -75 103 -22 24 -31 33 -20 19 38 -46 101 -144 132 -206 32 -63
72 -193 72 -233 0 -21 9 -16 78 44 42 38 84 74 93 82 14 11 12 1 -7 -53 -13
-36 -24 -77 -24 -91 0 -49 -16 -64 -70 -64 -45 0 -49 2 -53 28 -2 15 -5 -16
-6 -68 0 -52 -3 -113 -6 -135 l-5 -40 11 42 c9 38 30 59 232 234 122 106 238
207 257 225 19 17 98 86 175 153 161 140 207 197 237 294 39 128 6 307 -63
342 -34 18 -28 18 -62 0z m41 -99 l42 -12 -30 -22 c-50 -37 -83 -97 -83 -146
1 -43 21 -95 50 -128 23 -26 9 -48 -29 -48 -18 0 -60 -7 -93 -15 -33 -8 -64
-14 -68 -15 -5 0 10 19 33 43 23 23 49 56 58 72 23 44 21 131 -6 184 l-22 45
32 33 c24 25 38 32 53 28 11 -4 39 -12 63 -19z m-306 -518 c-11 -35 -23 -77
-27 -95 -9 -46 -29 -57 -119 -64 -44 -4 -90 -10 -101 -14 -14 -5 -9 3 15 26
63 61 245 217 249 214 1 -2 -6 -32 -17 -67z"/>
<path d="M2313 3913 c32 -2 81 -2 110 0 29 2 3 3 -58 3 -60 0 -84 -1 -52 -3z"/>
<path d="M2213 3903 c9 -2 23 -2 30 0 6 3 -1 5 -18 5 -16 0 -22 -2 -12 -5z"/>
<path d="M2503 3903 c9 -2 23 -2 30 0 6 3 -1 5 -18 5 -16 0 -22 -2 -12 -5z"/>
<path d="M2168 3893 c7 -3 16 -2 19 1 4 3 -2 6 -13 5 -11 0 -14 -3 -6 -6z"/>
<path d="M2558 3893 c7 -3 16 -2 19 1 4 3 -2 6 -13 5 -11 0 -14 -3 -6 -6z"/>
<path d="M2128 3883 c7 -3 16 -2 19 1 4 3 -2 6 -13 5 -11 0 -14 -3 -6 -6z"/>
<path d="M2050 3860 c-8 -5 -10 -10 -5 -10 6 0 17 5 25 10 8 5 11 10 5 10 -5
0 -17 -5 -25 -10z"/>
<path d="M2189 3855 c-140 -34 -291 -131 -382 -244 -44 -55 -25 -62 158 -61
198 2 205 2 205 -10 0 -19 -155 -85 -260 -110 -83 -20 -166 -59 -180 -84 -10
-19 -9 -29 4 -54 14 -28 82 -92 97 -92 4 0 24 -8 45 -17 l39 -17 -66 -7 c-116
-12 -208 -67 -224 -132 -7 -26 -5 -28 16 -23 222 47 689 72 1081 56 153 -5
298 -13 323 -17 25 -3 45 -3 45 0 0 20 -167 145 -247 184 -77 39 -102 46 -165
50 -115 6 -138 12 -138 32 0 11 22 30 60 52 33 19 60 37 60 41 0 14 -112 48
-158 48 -26 0 -81 -9 -122 -20 -41 -10 -77 -17 -80 -14 -7 8 56 60 115 94 28
16 86 41 130 55 71 24 90 27 170 22 50 -3 132 -15 183 -27 51 -12 95 -20 97
-18 9 9 -121 141 -180 183 -76 54 -187 107 -271 129 -76 20 -275 20 -355 1z"/>
<path d="M2700 3850 c8 -5 20 -10 25 -10 6 0 3 5 -5 10 -8 5 -19 10 -25 10 -5
0 -3 -5 5 -10z"/>
<path d="M1960 3819 c-30 -16 -59 -35 -65 -40 -8 -9 119 56 134 68 18 14 -24
-3 -69 -28z"/>
<path d="M3000 3666 c0 -2 8 -10 18 -17 15 -13 16 -12 3 4 -13 16 -21 21 -21
13z"/>
<path d="M2704 3529 c-39 -4 -84 -13 -100 -20 -28 -11 -24 -12 71 -34 271 -63
445 -176 520 -341 42 -92 27 -192 -31 -214 -23 -9 -511 -6 -520 3 -2 2 87 12
199 23 l202 19 -360 3 c-414 3 -813 -11 -965 -34 -154 -23 -151 -23 -163 10
-15 44 16 157 72 271 27 52 47 95 45 95 -1 0 -22 -31 -47 -68 -69 -105 -137
-248 -144 -302 -10 -88 -75 -82 881 -78 821 3 835 3 851 23 8 11 22 43 31 72
38 129 -47 294 -246 477 -100 92 -158 111 -296 95z"/>
</g>
</svg>
