<?xml version="1.0" standalone="no"?>
<!DOCTYPE svg PUBLIC "-//W3C//DTD SVG 20010904//EN"
 "http://www.w3.org/TR/2001/REC-SVG-20010904/DTD/svg10.dtd">
<svg version="1.0" xmlns="http://www.w3.org/2000/svg"
 width="491.000000pt" height="508.000000pt" viewBox="0 0 491.000000 508.000000"
 preserveAspectRatio="xMidYMid meet">

<g transform="translate(0.000000,508.000000) scale(0.100000,-0.100000)"
fill="#000000" stroke="none">
<path d="M2851 5045 c-129 -29 -189 -58 -328 -161 -12 -8 -68 -26 -125 -39
-106 -24 -228 -66 -311 -106 -40 -20 -52 -21 -75 -12 -244 102 -320 126 -443
137 -271 25 -534 -159 -605 -424 -17 -63 -22 -69 -140 -185 -110 -108 -124
-126 -138 -174 -9 -30 -16 -82 -16 -116 0 -71 3 -67 -155 -185 -237 -178 -358
-347 -423 -590 -32 -122 -37 -327 -9 -429 36 -131 101 -253 187 -351 37 -41
36 -37 -17 110 -37 104 -37 107 -41 283 -5 210 8 285 70 408 31 62 60 100 127
167 77 77 310 266 319 258 1 -2 -16 -46 -39 -97 -79 -179 -139 -399 -178 -644
-26 -162 -38 -329 -46 -605 -16 -586 -56 -1004 -134 -1420 -16 -85 -28 -157
-25 -159 11 -11 106 150 179 301 68 142 115 273 161 447 38 143 54 179 54 121
0 -67 41 -297 80 -458 48 -191 108 -352 191 -512 61 -116 227 -375 235 -367 3
2 -8 38 -24 78 -69 173 -133 406 -174 624 -32 170 -38 745 -8 745 4 0 11 -37
14 -82 12 -131 60 -354 101 -463 20 -55 77 -175 126 -266 49 -91 103 -201 120
-244 l30 -78 -34 -56 c-39 -64 -97 -176 -97 -189 0 -4 24 15 54 44 32 31 84
67 128 88 313 150 783 20 983 -273 27 -39 55 -73 64 -75 37 -12 154 -26 160
-21 20 21 8 478 -16 573 -7 28 -56 52 -244 115 -219 74 -350 99 -514 100 -132
1 -144 -1 -199 -26 -42 -20 -87 -54 -156 -122 -53 -52 -99 -95 -102 -95 -4 0
-16 25 -27 55 -15 40 -21 79 -21 137 0 80 0 81 36 114 47 45 189 128 278 164
78 30 207 60 265 60 42 0 86 -12 453 -124 144 -44 152 -45 144 -8 -25 103 -37
132 -59 136 -12 3 -94 19 -182 36 -88 17 -186 38 -217 47 l-58 16 0 128 c0
112 2 131 18 147 30 30 243 80 268 64 7 -4 37 -72 69 -152 57 -143 91 -220
100 -220 2 0 -5 26 -16 58 -29 85 -49 152 -44 152 15 0 136 -340 185 -516 73
-267 120 -556 120 -741 l0 -83 50 0 c36 0 52 5 59 18 10 16 10 16 11 -2 0 -17
6 -18 68 -13 37 4 77 7 90 7 20 0 22 5 22 48 -1 26 -7 94 -14 152 -7 58 -11
108 -7 111 3 4 67 -4 141 -17 236 -40 341 -48 402 -30 72 21 137 66 178 122
l33 46 17 -22 c9 -12 48 -84 85 -161 38 -76 75 -139 82 -139 23 0 163 141 163
164 0 12 -32 86 -70 165 -39 79 -69 146 -67 148 5 4 163 -220 170 -240 5 -17
34 7 54 46 14 28 13 33 -37 136 -55 113 -73 143 -222 371 -118 181 -167 270
-212 387 -20 51 -36 94 -36 97 0 2 46 34 103 72 124 82 346 299 392 384 29 54
30 58 35 236 l5 181 79 161 c44 89 84 162 88 162 24 0 -9 -205 -56 -343 -18
-53 -30 -97 -26 -97 11 0 161 186 208 258 50 77 142 262 142 286 0 9 4 16 9
16 21 0 33 -109 29 -267 -1 -89 0 -159 4 -155 16 16 91 243 118 357 85 357 49
707 -105 1015 -69 139 -145 240 -280 376 -106 106 -138 145 -175 214 -84 157
-229 326 -371 436 -148 113 -359 214 -537 255 -116 27 -407 35 -501 14z m-924
-389 c3 -2 -60 -69 -139 -147 -79 -79 -164 -172 -188 -206 -25 -35 -48 -63
-53 -63 -18 0 5 88 44 167 58 121 162 227 247 253 24 8 80 5 89 -4z m1753 -76
c202 -25 419 -100 489 -171 37 -36 86 -117 77 -126 -3 -3 -41 10 -83 30 -94
43 -151 62 -263 89 -122 29 -502 37 -680 14 -256 -34 -492 -101 -768 -218 -79
-33 -145 -58 -148 -55 -9 8 -33 110 -29 117 10 16 244 125 365 171 203 76 426
129 622 148 123 12 322 12 418 1z m-1439 -350 c3 -25 9 -65 13 -91 7 -43 6
-46 -20 -58 -34 -15 -47 -2 -69 73 -20 66 -19 73 10 102 37 37 59 28 66 -26z
m-126 -47 c4 -21 14 -62 23 -91 15 -50 15 -53 -4 -67 -33 -25 -51 -18 -69 28
-10 23 -21 60 -25 81 -7 33 -4 42 16 63 34 34 52 30 59 -14z m-82 -163 l15
-40 -65 -72 c-78 -86 -182 -241 -222 -330 -27 -59 -54 -142 -82 -248 -11 -42
-12 -44 -21 -20 -17 45 -21 174 -8 231 18 76 87 210 157 305 72 96 180 214
198 214 6 0 19 -18 28 -40z m-560 -610 c9 -36 25 -91 36 -123 11 -32 25 -111
31 -180 23 -263 37 -355 119 -802 66 -362 109 -698 91 -718 -11 -13 -186 286
-245 418 -98 220 -170 513 -196 795 -14 154 -6 475 16 620 19 122 76 351 102
407 l17 38 7 -195 c4 -123 12 -219 22 -260z m1738 264 c99 -143 298 -459 436
-690 76 -128 142 -233 147 -234 15 0 -6 475 -29 639 -19 143 139 -322 191
-561 15 -68 30 -127 34 -131 4 -4 24 37 45 92 21 56 39 101 42 101 2 0 1 -30
-2 -67 l-5 -68 20 85 c17 72 20 126 22 353 1 158 5 262 10 255 5 -7 38 -70 73
-139 68 -134 122 -279 127 -343 3 -42 3 -43 -80 -77 -35 -15 -58 -31 -67 -50
-8 -15 -15 -30 -15 -34 0 -12 36 -3 102 26 79 35 88 32 88 -32 0 -20 3 -51 6
-68 l7 -31 -77 0 c-87 0 -126 -13 -181 -61 -58 -51 -75 -97 -75 -209 0 -105
13 -143 49 -148 35 -5 57 22 86 106 47 134 47 135 56 120 13 -20 10 -68 -7
-123 -9 -31 -17 -110 -21 -205 -6 -174 -16 -205 -96 -308 -131 -171 -494 -418
-612 -416 -58 1 -212 62 -425 168 -216 107 -362 196 -467 284 -42 34 -79 62
-82 62 -3 -1 52 -57 123 -126 151 -148 311 -269 498 -378 l47 -27 -21 -40
c-18 -35 -20 -50 -14 -127 10 -131 16 -161 30 -156 7 3 77 -18 157 -45 135
-48 147 -54 189 -100 25 -27 53 -63 63 -80 l18 -31 -33 -14 c-30 -13 -35 -12
-58 5 -79 62 -305 188 -316 176 -2 -2 19 -20 48 -39 102 -68 210 -160 200
-170 -6 -6 -37 -6 -87 1 -78 11 -203 55 -325 116 -36 17 -101 46 -146 64 l-80
33 -68 132 c-36 72 -102 199 -144 281 -137 264 -205 504 -247 872 -22 196 -20
203 34 118 44 -68 169 -208 201 -225 11 -6 2 20 -27 78 -80 161 -106 323 -79
479 20 117 36 163 101 300 45 95 169 303 181 303 21 0 -144 -342 -208 -433
-11 -16 -17 -31 -14 -35 11 -10 255 246 339 356 138 181 239 359 262 460 3 18
10 32 15 32 5 0 32 -34 61 -76z m-1058 -740 c55 -19 60 -26 77 -119 7 -38 28
-118 48 -176 l36 -107 -18 -87 c-9 -48 -23 -103 -31 -122 -15 -35 -15 -35 -69
-31 -44 4 -65 13 -119 51 -154 110 -209 221 -187 378 16 112 46 168 115 210
37 23 87 24 148 3z m817 -2033 c106 -24 207 -60 330 -119 l94 -45 156 6 c85 3
165 8 177 12 20 7 21 9 8 46 -8 22 -10 37 -5 34 24 -15 277 -391 269 -400 -3
-2 -27 23 -54 56 -59 71 -169 179 -183 179 -6 0 -17 -33 -26 -73 l-16 -72 -89
-28 c-103 -32 -112 -31 -381 29 -228 51 -272 62 -284 74 -8 8 -83 210 -113
303 -7 22 8 22 117 -2z"/>
<path d="M2920 3040 c0 -3 138 -46 308 -94 169 -48 315 -90 325 -93 16 -4 17
-2 8 15 -6 11 -8 22 -5 25 20 19 -204 98 -348 122 -107 18 -288 33 -288 25z"/>
<path d="M2994 2791 c-86 -24 -273 -95 -300 -116 -18 -14 -17 -18 46 -140 78
-153 94 -171 83 -94 -11 77 -10 122 3 126 13 4 34 -47 34 -81 1 -39 38 -105
72 -126 25 -16 45 -20 81 -17 52 4 83 27 118 84 24 38 62 44 81 13 23 -37 24
-36 64 158 2 12 8 22 13 22 5 0 46 -29 92 -65 45 -36 84 -63 86 -61 3 2 -5 34
-16 71 -12 37 -21 69 -21 70 0 2 19 5 43 7 l42 3 -87 58 c-127 84 -167 99
-273 104 -67 2 -108 -2 -161 -16z"/>
<path d="M3380 2787 c0 -6 100 -67 108 -67 4 0 -2 8 -13 16 -23 18 -95 56 -95
51z"/>
<path d="M4147 2701 c-61 -36 -84 -60 -32 -33 52 27 103 62 90 62 -5 0 -32
-13 -58 -29z"/>
<path d="M2896 2256 c27 -33 29 -34 123 -41 53 -3 111 -9 129 -12 39 -6 44 13
7 27 -23 9 -24 12 -14 31 10 20 9 21 -7 14 -40 -17 -153 -18 -203 -1 -66 21
-66 21 -35 -18z"/>
<path d="M4012 2223 c4 -20 53 -29 97 -17 24 7 23 8 -14 14 -22 3 -51 10 -63
14 -20 7 -23 5 -20 -11z"/>
<path d="M3916 2042 c-11 -23 -17 -45 -13 -48 10 -10 39 44 35 68 -3 19 -6 16
-22 -20z"/>
<path d="M3628 1773 c6 -2 18 -2 25 0 6 3 1 5 -13 5 -14 0 -19 -2 -12 -5z"/>
<path d="M3164 987 c2 -32 8 -63 14 -69 7 -7 8 0 2 28 -5 22 -11 53 -14 69 -2
17 -3 4 -2 -28z"/>
<path d="M2035 2840 c-4 -6 6 -10 22 -10 34 0 90 -32 120 -69 11 -14 24 -23
28 -20 11 12 -48 71 -90 90 -45 21 -71 24 -80 9z"/>
<path d="M1942 2749 c-17 -44 -25 -112 -13 -105 6 4 11 17 11 30 0 13 5 37 11
55 13 37 4 56 -9 20z"/>
<path d="M2144 2579 c14 -17 26 -42 26 -55 0 -14 4 -22 10 -19 18 11 11 43
-16 74 -14 17 -30 31 -36 31 -5 0 2 -14 16 -31z"/>
<path d="M2123 1518 c-24 -5 -43 -12 -43 -16 0 -4 55 -22 123 -41 67 -19 128
-36 135 -39 6 -2 12 3 12 12 0 21 -29 78 -44 88 -15 10 -132 8 -183 -4z"/>
</g>
</svg>
