<?xml version="1.0" standalone="no"?>
<!DOCTYPE svg PUBLIC "-//W3C//DTD SVG 20010904//EN"
 "http://www.w3.org/TR/2001/REC-SVG-20010904/DTD/svg10.dtd">
<svg version="1.0" xmlns="http://www.w3.org/2000/svg"
 width="500.000000pt" height="500.000000pt" viewBox="0 0 500.000000 500.000000"
 preserveAspectRatio="xMidYMid meet">

<g transform="translate(0.000000,500.000000) scale(0.100000,-0.100000)"
fill="#000000" stroke="none">
<path d="M2285 4484 c-119 -29 -201 -79 -315 -195 -58 -59 -114 -109 -125
-112 -11 -3 -72 -18 -135 -32 -145 -34 -248 -81 -289 -134 -76 -96 -92 -194
-50 -306 33 -89 180 -230 335 -321 17 -10 17 -14 6 -36 -8 -13 -39 -56 -69
-94 -31 -38 -62 -83 -69 -101 -21 -50 -18 -115 9 -154 46 -70 189 -113 313
-94 69 10 37 24 -79 34 -50 5 -105 14 -121 20 -37 15 -86 50 -86 62 0 18 49 9
60 -11 13 -24 44 -25 115 -6 94 25 125 43 141 81 13 31 17 34 35 25 11 -6 25
-10 30 -8 13 4 -25 54 -51 68 -16 9 -21 3 -35 -40 -17 -52 -50 -80 -95 -80
-18 0 -20 6 -20 74 0 63 4 83 31 132 34 65 89 128 133 151 41 22 88 10 125
-33 26 -29 31 -43 31 -87 0 -44 -5 -59 -31 -90 -17 -21 -29 -40 -26 -43 16
-16 297 219 297 247 0 5 -12 9 -27 9 -75 0 -117 25 -299 178 -54 46 -139 110
-187 144 -88 60 -90 60 -142 54 l-53 -6 -19 38 c-18 37 -18 37 -93 42 -41 3
-81 9 -88 14 -17 10 -9 47 23 102 31 52 95 82 282 130 76 20 149 42 163 49 14
7 48 41 75 75 120 150 269 224 455 224 269 0 536 -182 630 -429 16 -44 24 -90
27 -171 7 -129 -10 -244 -63 -454 -40 -156 -52 -244 -35 -254 21 -14 52 82 93
292 46 237 59 418 38 541 -47 282 -340 506 -675 516 -73 2 -130 -2 -170 -11z"/>
<path d="M2424 4216 c-17 -8 -40 -26 -52 -41 -22 -27 -29 -55 -14 -55 16 0
108 59 131 84 l24 26 -29 0 c-16 -1 -43 -7 -60 -14z"/>
<path d="M2445 4140 c-11 -4 -31 -20 -45 -35 l-25 -28 25 5 c14 3 46 11 72 19
26 7 50 10 53 7 9 -9 -19 -59 -48 -86 -15 -14 -39 -25 -58 -25 -30 -2 -34 1
-44 36 -6 21 -14 39 -17 40 -12 4 -90 -106 -119 -169 -17 -34 -32 -85 -36
-114 -5 -47 -4 -52 12 -49 10 2 29 24 42 48 13 25 25 47 28 49 3 3 34 -7 70
-23 58 -24 74 -27 130 -21 l65 7 -10 -25 c-5 -14 -20 -47 -35 -75 -27 -54 -31
-71 -15 -71 22 0 70 66 99 133 40 95 40 61 -1 -42 -17 -45 -28 -84 -24 -88 4
-4 18 5 32 19 37 36 64 143 64 248 0 106 -20 179 -61 219 -26 27 -37 31 -82
30 -29 0 -61 -4 -72 -9z"/>
<path d="M1508 3962 c-20 -2 -28 -9 -28 -23 0 -11 6 -22 14 -25 19 -7 56 13
56 31 0 18 -9 22 -42 17z"/>
<path d="M2265 3700 c11 -18 82 -49 127 -55 40 -6 42 -5 24 9 -22 18 -119 56
-142 56 -8 0 -12 -5 -9 -10z"/>
<path d="M4007 3486 c-52 -42 -55 -43 -85 -30 -32 13 -32 13 -47 -22 -8 -19
-23 -46 -34 -60 -11 -14 -23 -46 -26 -72 -13 -100 -13 -100 -54 -107 -40 -7
-39 -3 -85 -166 -21 -75 -20 -86 10 -116 22 -22 25 -31 20 -67 -5 -29 -2 -47
9 -61 15 -20 16 -19 45 13 l30 32 0 -30 c0 -23 -6 -33 -24 -39 -25 -10 -36
-30 -36 -65 0 -21 6 -24 63 -29 79 -7 132 4 166 37 l26 25 22 -32 c33 -48 43
-81 53 -181 16 -160 -23 -394 -91 -545 -99 -219 -296 -455 -428 -514 -98 -43
-238 -29 -274 27 -9 13 -21 52 -27 87 -6 35 -20 93 -31 128 -10 34 -26 133
-34 220 -21 214 -42 365 -62 434 -12 45 -20 57 -36 57 -19 0 -20 -4 -14 -102
4 -57 16 -157 28 -223 15 -89 23 -192 29 -395 6 -203 13 -297 27 -360 18 -83
19 -85 49 -88 52 -5 164 26 260 73 266 129 496 385 595 660 30 86 21 18 -12
-79 -84 -251 -269 -489 -501 -643 -122 -81 -200 -121 -311 -157 -91 -30 -137
-55 -137 -74 0 -18 45 -10 150 24 434 145 742 472 874 928 30 101 36 231 12
250 -11 9 -12 27 -4 96 5 47 7 127 3 177 l-5 92 48 25 c42 21 55 36 100 116
55 96 59 117 40 200 -9 40 -9 56 0 71 17 27 16 158 -2 165 -7 3 -40 -7 -72
-21 -34 -15 -68 -24 -81 -20 -24 6 -107 88 -94 93 5 2 30 -11 57 -28 26 -16
61 -30 76 -30 l29 0 -3 63 c-3 60 -4 62 -29 59 -24 -2 -28 2 -38 41 -17 68
-72 207 -81 207 -5 0 -33 -20 -63 -44z m-38 -446 c-10 -144 -14 -158 -45 -170
-32 -13 -114 -13 -114 -1 0 16 22 25 70 31 l45 5 7 92 c6 78 31 175 41 162 2
-2 0 -56 -4 -119z"/>
<path d="M1198 3293 c-12 -44 -18 -49 -63 -67 -28 -11 -52 -22 -54 -23 -3 -2
-4 -22 -3 -44 2 -31 -4 -49 -29 -84 -31 -43 -32 -46 -15 -64 10 -11 36 -32 58
-47 25 -18 67 -69 111 -134 129 -192 269 -348 389 -432 42 -30 57 -46 53 -57
-54 -137 -85 -270 -85 -368 0 -139 23 -104 55 86 31 183 119 402 237 595 52
83 87 101 182 91 87 -9 130 -31 185 -91 102 -111 165 -255 197 -449 12 -79 14
-135 9 -267 -6 -149 -5 -168 9 -168 8 0 23 15 33 33 15 27 18 57 17 207 0 152
-4 190 -26 285 -32 138 -78 256 -127 331 -49 76 -82 106 -162 149 l-64 35 50
0 c108 1 235 99 235 181 0 21 -3 21 -81 17 -75 -4 -90 -9 -197 -64 -191 -98
-222 -121 -278 -210 -28 -43 -73 -121 -99 -171 -27 -51 -51 -93 -55 -93 -3 0
-46 26 -95 59 -154 100 -246 191 -340 336 -28 44 -76 102 -106 129 -54 49 -54
49 -31 63 18 13 22 25 22 64 l0 49 46 11 c45 12 47 13 69 77 4 10 15 5 40 -17
57 -49 114 -74 175 -75 79 -1 73 21 -14 54 -38 15 -85 40 -105 57 -42 35 -65
48 -103 57 -25 6 -28 3 -40 -41z"/>
<path d="M3330 3144 c-243 -26 -400 -67 -579 -150 -106 -50 -181 -106 -181
-135 0 -32 47 -24 93 17 71 65 301 156 484 193 112 22 279 37 317 27 23 -6 26
-11 26 -53 0 -29 8 -58 21 -79 19 -31 19 -35 5 -63 -9 -17 -16 -46 -16 -66 0
-25 -5 -37 -17 -42 -10 -3 -51 -31 -92 -61 -91 -67 -168 -101 -445 -196 -118
-41 -220 -77 -225 -81 -48 -29 66 -135 146 -135 21 0 41 13 78 51 28 27 84 68
125 91 179 97 256 144 330 199 43 32 97 68 121 79 40 21 41 23 37 64 -4 29 1
52 13 76 25 46 24 63 -6 109 -23 33 -25 44 -19 93 10 85 5 86 -216 62z"/>
<path d="M3926 2568 c22 -180 -4 -312 -88 -451 -101 -168 -258 -292 -461 -362
-67 -23 -123 -47 -124 -52 -7 -19 28 -23 95 -13 134 22 267 98 402 230 110
107 167 195 208 317 22 67 25 95 25 203 0 135 -16 200 -49 200 -15 0 -16 -8
-8 -72z"/>
<path d="M1317 1850 c-60 -15 -111 -45 -151 -91 -62 -68 -79 -118 -84 -247 -4
-99 -7 -112 -21 -107 -119 49 -415 85 -459 56 -9 -5 -12 -24 -10 -52 3 -44 3
-44 248 -257 352 -308 450 -378 538 -389 79 -9 105 11 156 121 48 103 63 118
178 170 144 66 239 77 384 46 50 -11 53 -13 83 -74 17 -35 61 -96 97 -135 l66
-71 -26 -77 c-36 -107 -35 -172 2 -215 16 -18 38 -48 51 -66 l23 -32 38 30
c56 45 99 42 140 -10 17 -22 35 -40 38 -40 4 0 20 20 35 45 16 25 35 45 43 45
7 0 32 -19 54 -42 l42 -43 30 35 c49 57 88 132 88 170 0 19 -5 78 -12 130
l-11 95 51 54 c119 124 203 371 169 496 -9 30 -9 29 -44 -38 -91 -171 -330
-311 -501 -294 -116 12 -234 104 -297 230 l-35 69 27 50 c31 57 160 183 240
234 55 35 71 61 31 48 -49 -14 -114 -60 -177 -124 -121 -121 -189 -248 -199
-367 l-5 -62 -51 20 c-81 32 -132 66 -207 136 -117 111 -194 246 -244 425 -35
128 -40 133 -173 135 -59 1 -124 -2 -145 -7z m222 -65 c18 -18 70 -236 58
-240 -7 -2 -37 -8 -67 -13 -81 -15 -144 -46 -199 -97 -53 -49 -74 -91 -91
-175 -16 -81 -16 -81 -85 -64 -37 9 -106 14 -178 13 -65 -1 -123 3 -128 8 -6
6 -6 20 1 37 5 15 10 50 10 77 0 58 0 58 110 28 56 -15 90 -31 125 -60 76 -63
83 -53 60 77 -22 120 -16 202 18 271 30 59 92 116 151 137 46 17 198 18 215 1z
m-749 -462 c0 -24 -3 -43 -6 -43 -10 0 -104 81 -104 90 0 13 94 17 102 5 4 -5
8 -29 8 -52z m1665 -719 c27 -27 2 -89 -45 -114 -12 -7 -21 -1 -34 24 -16 30
-16 36 -2 69 11 29 21 37 40 37 13 0 32 -7 41 -16z m375 -29 c0 -51 -24 -108
-43 -102 -20 6 -37 49 -37 93 0 49 4 54 47 54 33 0 33 -1 33 -45z m-168 -16
c5 -26 2 -41 -15 -66 -28 -41 -40 -41 -66 1 -29 46 -28 94 1 105 40 14 72 -2
80 -40z"/>
</g>
</svg>
